<svg width="404" height="37" viewBox="0 0 404 37" fill="none" xmlns="http://www.w3.org/2000/svg">
    <path
        d="M20.1 0.299998C24.1 0.299998 27.5667 1.05 30.5 2.55C33.4667 4.01667 35.75 6.1 37.35 8.8C38.9833 11.5 39.8 14.7333 39.8 18.5C39.8 22.2333 38.9833 25.4667 37.35 28.2C35.75 30.9 33.4667 33 30.5 34.5C27.5667 35.9667 24.1 36.7 20.1 36.7C16.1 36.7 12.6167 35.9667 9.65 34.5C6.71667 33 4.45 30.9 2.85 28.2C1.25 25.5 0.45 22.2667 0.45 18.5C0.45 14.7667 1.25 11.55 2.85 8.85C4.45 6.11667 6.71667 4.01667 9.65 2.55C12.6167 1.05 16.1 0.299998 20.1 0.299998ZM20.1 34.6C22.4667 34.6 24.5 33.95 26.2 32.65C27.9 31.3167 29.2167 29.45 30.15 27.05C31.0833 24.65 31.55 21.8 31.55 18.5C31.55 15.2 31.0833 12.35 30.15 9.95C29.2167 7.55 27.9 5.7 26.2 4.4C24.5 3.06666 22.4667 2.4 20.1 2.4C17.7667 2.4 15.7333 3.06666 14 4.4C12.3 5.7 10.9833 7.55 10.05 9.95C9.11667 12.35 8.65 15.2 8.65 18.5C8.65 21.8 9.11667 24.65 10.05 27.05C10.9833 29.45 12.3 31.3167 14 32.65C15.7333 33.95 17.7667 34.6 20.1 34.6ZM52.8152 6H57.6152C60.3152 6 62.4986 6.36667 64.1652 7.1C65.8319 7.83333 67.0819 8.83333 67.9152 10.1C68.7486 11.3333 69.1986 12.7333 69.2652 14.3C69.3319 16.2667 68.9319 17.9833 68.0652 19.45C67.2319 20.9167 66.0986 22.0333 64.6652 22.8C63.2319 23.5667 61.6652 23.9167 59.9652 23.85C58.2652 23.75 56.5819 23.15 54.9152 22.05V21.6C54.9152 21.6 55.0819 21.6 55.4152 21.6C55.7819 21.6 56.2319 21.55 56.7652 21.45C57.2986 21.3167 57.8486 21.0833 58.4152 20.75C59.0152 20.4167 59.5819 19.9167 60.1152 19.25C60.6486 18.5833 61.0652 17.6833 61.3652 16.55C61.4652 16.15 61.5319 15.7167 61.5652 15.25C61.6319 14.75 61.6486 14.3167 61.6152 13.95C61.5819 12.1167 61.0319 10.6667 59.9652 9.6C58.9319 8.5 57.4819 7.95 55.6152 7.95H53.2652C53.2652 7.95 53.2319 7.8 53.1652 7.5C53.0986 7.16666 53.0152 6.83333 52.9152 6.5C52.8486 6.16667 52.8152 6 52.8152 6ZM53.3652 6V36H46.1652V6H53.3652ZM46.2652 32.85L46.4652 36H42.8652V35.5C42.8986 35.5 42.9986 35.5 43.1652 35.5C43.3319 35.5 43.4319 35.5 43.4652 35.5C44.1986 35.5 44.8152 35.25 45.3152 34.75C45.8486 34.2167 46.1319 33.5833 46.1652 32.85H46.2652ZM46.2652 9.1H46.1652C46.1319 8.33333 45.8486 7.71666 45.3152 7.25C44.8152 6.75 44.1986 6.5 43.4652 6.5C43.3986 6.5 43.2819 6.5 43.1152 6.5C42.9819 6.5 42.8819 6.5 42.8152 6.5V6H46.4652L46.2652 9.1ZM53.2652 32.85H53.3652C53.3986 33.5833 53.6652 34.2167 54.1652 34.75C54.6652 35.25 55.2986 35.5 56.0652 35.5C56.1319 35.5 56.2319 35.5 56.3652 35.5C56.5319 35.5 56.6319 35.5 56.6652 35.5V36H53.0152L53.2652 32.85ZM89.0121 6.15V36H81.7621V6.15H89.0121ZM99.9121 5.95V7.95H70.9121V5.95H99.9121ZM99.9121 7.8V13.1H99.3621V12.65C99.3954 11.2167 98.9954 10.0833 98.1621 9.25C97.3621 8.41667 96.2454 7.98333 94.8121 7.95V7.8H99.9121ZM99.9121 5.2V6.45L94.6121 5.95C95.2454 5.95 95.9288 5.91667 96.6621 5.85C97.3954 5.75 98.0621 5.65 98.6621 5.55C99.2621 5.41667 99.6788 5.3 99.9121 5.2ZM81.8621 32.85V36H78.5121V35.5C78.5121 35.5 78.5954 35.5 78.7621 35.5C78.9621 35.5 79.0621 35.5 79.0621 35.5C79.7954 35.5 80.4121 35.25 80.9121 34.75C81.4454 34.2167 81.7288 33.5833 81.7621 32.85H81.8621ZM88.8621 32.85H89.0121C89.0121 33.5833 89.2788 34.2167 89.8121 34.75C90.3454 35.25 90.9954 35.5 91.7621 35.5C91.7621 35.5 91.8454 35.5 92.0121 35.5C92.2121 35.5 92.3121 35.5 92.3121 35.5V36H88.8621V32.85ZM76.0121 7.8V7.95C74.5454 7.98333 73.4121 8.41667 72.6121 9.25C71.8454 10.0833 71.4621 11.2167 71.4621 12.65V13.1H70.9121V7.8H76.0121ZM70.9121 5.2C71.2121 5.26666 71.6454 5.36667 72.2121 5.5C72.8121 5.63333 73.4621 5.75 74.1621 5.85C74.8954 5.91667 75.5621 5.95 76.1621 5.95L70.9121 6.45V5.2ZM113.183 6V36H105.983V6H113.183ZM106.133 32.85V36H102.483V35.5C102.483 35.5 102.583 35.5 102.783 35.5C102.983 35.5 103.1 35.5 103.133 35.5C103.9 35.5 104.567 35.25 105.133 34.75C105.7 34.2167 105.983 33.5833 105.983 32.85H106.133ZM113.083 32.85H113.183C113.217 33.5833 113.5 34.2167 114.033 34.75C114.6 35.25 115.283 35.5 116.083 35.5C116.083 35.5 116.167 35.5 116.333 35.5C116.533 35.5 116.65 35.5 116.683 35.5V36H113.083V32.85ZM113.083 9.15V6H116.683L116.633 6.5C116.633 6.5 116.55 6.5 116.383 6.5C116.217 6.5 116.117 6.5 116.083 6.5C115.283 6.5 114.6 6.75 114.033 7.25C113.5 7.75 113.217 8.38333 113.183 9.15H113.083ZM106.133 9.15H105.983C105.983 8.38333 105.7 7.75 105.133 7.25C104.567 6.75 103.883 6.5 103.083 6.5C103.083 6.5 102.983 6.5 102.783 6.5C102.583 6.5 102.483 6.5 102.483 6.5V6H106.133V9.15ZM153.611 5.35L154.011 10.5L140.561 31.85C140.561 31.85 140.411 32.1333 140.111 32.7C139.811 33.2333 139.511 33.8833 139.211 34.65C138.945 35.4167 138.795 36.1833 138.761 36.95H138.311L136.361 32.85L153.611 5.35ZM122.861 32.8V36H117.961V35.5C117.961 35.5 118.078 35.5 118.311 35.5C118.511 35.5 118.611 35.5 118.611 35.5C119.445 35.5 120.161 35.2667 120.761 34.8C121.395 34.3333 121.778 33.6667 121.911 32.8H122.861ZM125.011 33.5C124.978 33.8667 125.095 34.3 125.361 34.8C125.628 35.2667 126.095 35.5 126.761 35.5H127.461V36H124.461L124.761 33.5H125.011ZM125.811 5.35H126.211L127.911 10.15L124.761 36H121.511L125.811 5.35ZM126.211 5.35L141.011 27.5L138.311 36.95L125.011 16.8L126.211 5.35ZM154.061 5.35L158.461 36H150.811L148.361 17.75L153.611 5.35H154.061ZM157.061 32.8H158.011C158.178 33.6667 158.561 34.3333 159.161 34.8C159.795 35.2667 160.495 35.5 161.261 35.5C161.261 35.5 161.378 35.5 161.611 35.5C161.845 35.5 161.961 35.5 161.961 35.5V36H157.061V32.8ZM150.461 33.5H150.761L151.061 36H148.061V35.5H148.761C149.495 35.5 149.978 35.2667 150.211 34.8C150.445 34.3 150.528 33.8667 150.461 33.5ZM173.925 6V36H166.725V6H173.925ZM166.875 32.85V36H163.225V35.5C163.225 35.5 163.325 35.5 163.525 35.5C163.725 35.5 163.842 35.5 163.875 35.5C164.642 35.5 165.309 35.25 165.875 34.75C166.442 34.2167 166.725 33.5833 166.725 32.85H166.875ZM173.825 32.85H173.925C173.959 33.5833 174.242 34.2167 174.775 34.75C175.342 35.25 176.025 35.5 176.825 35.5C176.825 35.5 176.909 35.5 177.075 35.5C177.275 35.5 177.392 35.5 177.425 35.5V36H173.825V32.85ZM173.825 9.15V6H177.425L177.375 6.5C177.375 6.5 177.292 6.5 177.125 6.5C176.959 6.5 176.859 6.5 176.825 6.5C176.025 6.5 175.342 6.75 174.775 7.25C174.242 7.75 173.959 8.38333 173.925 9.15H173.825ZM166.875 9.15H166.725C166.725 8.38333 166.442 7.75 165.875 7.25C165.309 6.75 164.625 6.5 163.825 6.5C163.825 6.5 163.725 6.5 163.525 6.5C163.325 6.5 163.225 6.5 163.225 6.5V6H166.875V9.15ZM206.854 5.35C206.854 5.35 206.854 5.41667 206.854 5.55C206.854 5.68333 206.854 5.75 206.854 5.75L189.454 36H180.854V35.6L197.304 7.95H181.554V5.95H201.754C202.387 5.95 203.054 5.93333 203.754 5.9C204.487 5.83333 205.137 5.75 205.704 5.65C206.27 5.55 206.654 5.45 206.854 5.35ZM206.354 34.05L206.004 36H184.154V34.05H206.354ZM208.704 26.8L206.554 36H197.504L199.204 34.05C200.77 34.0167 202.137 33.7167 203.304 33.15C204.47 32.5833 205.454 31.7667 206.254 30.7C207.087 29.6 207.737 28.3 208.204 26.8H208.704ZM181.554 7.8H186.704V7.95C185.237 7.95 184.087 8.38333 183.254 9.25C182.454 10.0833 182.054 11.2333 182.054 12.7V13.1H181.554V7.8ZM181.554 5.2C181.82 5.3 182.254 5.41667 182.854 5.55C183.487 5.65 184.17 5.75 184.904 5.85C185.67 5.91667 186.37 5.95 187.004 5.95L181.554 6.45V5.2ZM229.07 5.35C231.737 5.35 234.153 5.71667 236.32 6.45C238.487 7.15 240.353 8.18333 241.92 9.55C243.487 10.9167 244.687 12.5667 245.52 14.5C246.387 16.4333 246.82 18.6167 246.82 21.05C246.82 23.45 246.387 25.6167 245.52 27.55C244.687 29.45 243.487 31.0833 241.92 32.45C240.353 33.8167 238.487 34.8667 236.32 35.6C234.153 36.3 231.737 36.65 229.07 36.65C226.437 36.65 224.037 36.3 221.87 35.6C219.703 34.8667 217.837 33.8167 216.27 32.45C214.703 31.0833 213.503 29.45 212.67 27.55C211.837 25.6167 211.42 23.45 211.42 21.05C211.42 18.6167 211.837 16.4333 212.67 14.5C213.503 12.5667 214.703 10.9167 216.27 9.55C217.837 8.18333 219.703 7.15 221.87 6.45C224.037 5.71667 226.437 5.35 229.07 5.35ZM229.07 34.7C231.103 34.7 232.87 34.15 234.37 33.05C235.903 31.9167 237.07 30.3333 237.87 28.3C238.703 26.2667 239.12 23.85 239.12 21.05C239.12 18.2167 238.703 15.7833 237.87 13.75C237.07 11.6833 235.903 10.1 234.37 9C232.87 7.86667 231.103 7.3 229.07 7.3C227.07 7.3 225.32 7.86667 223.82 9C222.32 10.1 221.153 11.6833 220.32 13.75C219.487 15.7833 219.07 18.2167 219.07 21.05C219.07 23.85 219.487 26.2667 220.32 28.3C221.153 30.3333 222.32 31.9167 223.82 33.05C225.32 34.15 227.07 34.7 229.07 34.7ZM260.001 6H265.401C266.768 6 268.101 6.15 269.401 6.45C270.701 6.71667 271.868 7.16667 272.901 7.8C273.935 8.4 274.751 9.23333 275.351 10.3C275.985 11.3333 276.301 12.6333 276.301 14.2C276.301 15.3667 276.051 16.5333 275.551 17.7C275.085 18.8333 274.335 19.8167 273.301 20.65C272.301 21.4833 270.985 22.0333 269.351 22.3C270.318 22.6 271.235 23.1833 272.101 24.05C273.001 24.9167 273.701 25.7333 274.201 26.5C274.335 26.7667 274.568 27.2 274.901 27.8C275.235 28.3667 275.651 29.0333 276.151 29.8C276.685 30.5333 277.235 31.3 277.801 32.1C278.468 33 279.051 33.7 279.551 34.2C280.051 34.6667 280.568 35 281.101 35.2C281.635 35.4 282.251 35.5 282.951 35.5V36H278.751C276.951 36 275.418 35.8667 274.151 35.6C272.918 35.3333 271.835 34.85 270.901 34.15C270.001 33.4167 269.168 32.4333 268.401 31.2C268.101 30.7667 267.785 30.25 267.451 29.65C267.118 29.0167 266.785 28.3833 266.451 27.75C266.118 27.1167 265.818 26.5 265.551 25.9C265.318 25.3 265.151 24.8 265.051 24.4C264.618 23.3333 264.118 22.5667 263.551 22.1C263.018 21.6 262.518 21.35 262.051 21.35V20.9C262.051 20.9 262.168 20.9 262.401 20.9C262.635 20.9 262.935 20.9 263.301 20.9C264.001 20.9 264.685 20.7833 265.351 20.55C266.051 20.2833 266.685 19.8 267.251 19.1C267.818 18.3667 268.235 17.3 268.501 15.9C268.568 15.7 268.618 15.4167 268.651 15.05C268.718 14.6833 268.735 14.2667 268.701 13.8C268.635 12.5667 268.401 11.5833 268.001 10.85C267.635 10.0833 267.168 9.51667 266.601 9.15C266.035 8.75 265.451 8.48333 264.851 8.35C264.285 8.18333 263.785 8.1 263.351 8.1C262.718 8.06667 262.135 8.06667 261.601 8.1C261.101 8.1 260.718 8.08333 260.451 8.05C260.418 8.05 260.368 7.88333 260.301 7.55C260.235 7.18333 260.168 6.83333 260.101 6.5C260.035 6.16667 260.001 6 260.001 6ZM260.501 6V36H253.251V6H260.501ZM253.401 32.85L253.601 36H250.001V35.5C250.035 35.5 250.118 35.5 250.251 35.5C250.418 35.5 250.535 35.5 250.601 35.5C251.335 35.5 251.951 35.25 252.451 34.75C252.985 34.2167 253.268 33.5833 253.301 32.85H253.401ZM253.401 9.1H253.301C253.268 8.33333 252.985 7.71666 252.451 7.25C251.951 6.75 251.351 6.5 250.651 6.5C250.551 6.5 250.418 6.5 250.251 6.5C250.118 6.5 250.035 6.5 250.001 6.5V6H253.601L253.401 9.1ZM260.401 32.85H260.501C260.501 33.6833 260.785 34.3333 261.351 34.8C261.951 35.2667 262.585 35.5 263.251 35.5C263.251 35.5 263.318 35.5 263.451 35.5C263.585 35.5 263.685 35.5 263.751 35.5V36H260.151L260.401 32.85ZM295.211 1.3H303.361L311.361 23.9L308.361 36.9L295.211 1.3ZM320.211 0.199999L321.111 5.15L310.011 31.35C310.011 31.35 309.911 31.6333 309.711 32.2C309.511 32.7667 309.311 33.4667 309.111 34.3C308.945 35.1333 308.845 36 308.811 36.9H308.361L306.961 30.95L319.761 0.199999H320.211ZM320.211 0.249998L331.211 24.55L328.811 36.9L316.761 10.25L320.211 0.249998ZM339.561 1.3L330.161 31.35C330.161 31.35 330.078 31.65 329.911 32.25C329.745 32.8167 329.595 33.5333 329.461 34.4C329.328 35.2333 329.278 36.0667 329.311 36.9H328.811L327.411 31.95L336.161 1.3H339.561ZM335.211 4.6C335.478 3.6 335.395 2.83333 334.961 2.3C334.528 1.76666 333.978 1.5 333.311 1.5H332.861V0.999998H343.311V1.5C343.311 1.5 343.245 1.5 343.111 1.5C342.978 1.5 342.911 1.5 342.911 1.5C342.145 1.5 341.311 1.75 340.411 2.25C339.511 2.71667 338.878 3.5 338.511 4.6H335.211ZM304.611 4.6H296.461C296.028 3.5 295.378 2.71667 294.511 2.25C293.645 1.75 292.828 1.5 292.061 1.5C292.061 1.5 291.995 1.5 291.861 1.5C291.728 1.5 291.661 1.5 291.661 1.5V0.999998H306.911V1.5H306.461C305.828 1.5 305.261 1.76666 304.761 2.3C304.295 2.83333 304.245 3.6 304.611 4.6ZM352.72 4.65L367.52 35.75H359.07L349.77 13.8L352.72 4.65ZM343.32 32.7C342.953 33.6 343.003 34.3 343.47 34.8C343.936 35.2667 344.453 35.5 345.02 35.5H345.42V36H335.42V35.5C335.42 35.5 335.486 35.5 335.62 35.5C335.753 35.5 335.82 35.5 335.82 35.5C336.486 35.5 337.186 35.3 337.92 34.9C338.653 34.4667 339.253 33.7333 339.72 32.7H343.32ZM352.72 4.65L352.82 10.65L341.97 35.85H338.27L349.97 10.7C350.036 10.5 350.186 10.15 350.42 9.65C350.653 9.11667 350.903 8.53333 351.17 7.9C351.436 7.23333 351.686 6.61667 351.92 6.05C352.153 5.45 352.286 4.98333 352.32 4.65H352.72ZM357.07 26.2V28.15H344.32V26.2H357.07ZM357.82 32.7H366.07C366.57 33.7333 367.186 34.4667 367.92 34.9C368.653 35.3 369.353 35.5 370.02 35.5C370.02 35.5 370.086 35.5 370.22 35.5C370.353 35.5 370.42 35.5 370.42 35.5V36H355.72V35.5H356.12C356.686 35.5 357.203 35.2667 357.67 34.8C358.136 34.3 358.186 33.6 357.82 32.7ZM380.997 6H386.397C387.764 6 389.097 6.15 390.397 6.45C391.697 6.71667 392.864 7.16667 393.897 7.8C394.931 8.4 395.747 9.23333 396.347 10.3C396.981 11.3333 397.297 12.6333 397.297 14.2C397.297 15.3667 397.047 16.5333 396.547 17.7C396.081 18.8333 395.331 19.8167 394.297 20.65C393.297 21.4833 391.981 22.0333 390.347 22.3C391.314 22.6 392.231 23.1833 393.097 24.05C393.997 24.9167 394.697 25.7333 395.197 26.5C395.331 26.7667 395.564 27.2 395.897 27.8C396.231 28.3667 396.647 29.0333 397.147 29.8C397.681 30.5333 398.231 31.3 398.797 32.1C399.464 33 400.047 33.7 400.547 34.2C401.047 34.6667 401.564 35 402.097 35.2C402.631 35.4 403.247 35.5 403.947 35.5V36H399.747C397.947 36 396.414 35.8667 395.147 35.6C393.914 35.3333 392.831 34.85 391.897 34.15C390.997 33.4167 390.164 32.4333 389.397 31.2C389.097 30.7667 388.781 30.25 388.447 29.65C388.114 29.0167 387.781 28.3833 387.447 27.75C387.114 27.1167 386.814 26.5 386.547 25.9C386.314 25.3 386.147 24.8 386.047 24.4C385.614 23.3333 385.114 22.5667 384.547 22.1C384.014 21.6 383.514 21.35 383.047 21.35V20.9C383.047 20.9 383.164 20.9 383.397 20.9C383.631 20.9 383.931 20.9 384.297 20.9C384.997 20.9 385.681 20.7833 386.347 20.55C387.047 20.2833 387.681 19.8 388.247 19.1C388.814 18.3667 389.231 17.3 389.497 15.9C389.564 15.7 389.614 15.4167 389.647 15.05C389.714 14.6833 389.731 14.2667 389.697 13.8C389.631 12.5667 389.397 11.5833 388.997 10.85C388.631 10.0833 388.164 9.51667 387.597 9.15C387.031 8.75 386.447 8.48333 385.847 8.35C385.281 8.18333 384.781 8.1 384.347 8.1C383.714 8.06667 383.131 8.06667 382.597 8.1C382.097 8.1 381.714 8.08333 381.447 8.05C381.414 8.05 381.364 7.88333 381.297 7.55C381.231 7.18333 381.164 6.83333 381.097 6.5C381.031 6.16667 380.997 6 380.997 6ZM381.497 6V36H374.247V6H381.497ZM374.397 32.85L374.597 36H370.997V35.5C371.031 35.5 371.114 35.5 371.247 35.5C371.414 35.5 371.531 35.5 371.597 35.5C372.331 35.5 372.947 35.25 373.447 34.75C373.981 34.2167 374.264 33.5833 374.297 32.85H374.397ZM374.397 9.1H374.297C374.264 8.33333 373.981 7.71666 373.447 7.25C372.947 6.75 372.347 6.5 371.647 6.5C371.547 6.5 371.414 6.5 371.247 6.5C371.114 6.5 371.031 6.5 370.997 6.5V6H374.597L374.397 9.1ZM381.397 32.85H381.497C381.497 33.6833 381.781 34.3333 382.347 34.8C382.947 35.2667 383.581 35.5 384.247 35.5C384.247 35.5 384.314 35.5 384.447 35.5C384.581 35.5 384.681 35.5 384.747 35.5V36H381.147L381.397 32.85Z"
        fill="#F0BE21" />
</svg>
